<?xml version="1.0" standalone="no"?>
<!DOCTYPE svg PUBLIC "-//W3C//DTD SVG 20010904//EN"
 "http://www.w3.org/TR/2001/REC-SVG-20010904/DTD/svg10.dtd">
<svg version="1.0" xmlns="http://www.w3.org/2000/svg"
 width="686.000000pt" height="177.000000pt" viewBox="0 0 686.000000 177.000000"
 preserveAspectRatio="xMidYMid meet">

<g transform="translate(0.000000,177.000000) scale(0.100000,-0.100000)"
fill="#000000" stroke="none">
<path d="M320 1608 c-53 -28 -80 -63 -89 -114 -3 -22 -4 -182 -1 -356 5 -301
6 -318 26 -345 41 -55 80 -73 158 -73 39 0 77 -4 83 -8 18 -12 -9 -114 -47
-175 -51 -83 -20 -88 118 -21 77 37 108 59 172 125 l78 79 250 0 249 0 40 29
c70 51 73 67 73 427 0 342 -2 355 -56 406 -16 15 -42 32 -57 37 -19 7 -188 11
-491 11 -459 0 -462 0 -506 -22z m877 -373 c26 -29 29 -55 11 -88 -18 -34 -40
-46 -82 -47 -82 0 -117 86 -59 145 24 23 34 26 68 22 26 -4 48 -15 62 -32z
m-302 0 c36 -35 35 -96 -1 -124 -47 -37 -123 -22 -144 29 -35 86 80 161 145
95z m-294 -14 c38 -39 38 -78 1 -114 -85 -81 -208 34 -126 117 37 37 86 35
125 -3z"/>
<path d="M2548 1433 l-38 -4 0 -470 0 -469 75 0 75 0 0 238 c0 233 0 238 24
272 47 69 114 79 135 19 7 -20 11 -126 11 -280 l0 -249 70 0 70 0 0 278 c0
248 -2 281 -19 318 -27 59 -67 84 -133 84 -57 0 -94 -19 -137 -71 l-20 -24 -1
183 0 182 -37 -2 c-21 -1 -55 -3 -75 -5z"/>
<path d="M1556 1331 c-2 -3 -4 -140 -5 -304 -2 -313 -4 -330 -47 -368 -48 -42
-61 -44 -358 -49 l-289 -5 -41 -48 -41 -49 24 -19 c21 -18 42 -19 266 -19
l243 0 26 -44 c31 -54 75 -92 141 -122 49 -23 105 -32 105 -16 0 4 -11 34 -25
67 -13 33 -25 72 -25 86 0 24 4 27 52 32 56 7 89 26 122 71 20 26 21 42 24
347 3 315 2 320 -19 360 -13 21 -34 47 -48 56 -28 18 -99 34 -105 24z"/>
<path d="M3748 1313 c-28 -4 -28 -5 -28 -79 l0 -74 -40 0 -40 0 0 -55 0 -55
39 0 40 0 3 -239 c3 -224 4 -241 24 -267 35 -48 70 -67 129 -72 54 -4 137 17
150 39 3 4 -4 26 -17 47 -21 38 -24 39 -72 38 -73 -2 -76 7 -76 252 l0 202 60
0 c50 0 60 3 60 18 0 9 3 34 6 55 l7 37 -67 0 -66 0 0 80 0 80 -42 -1 c-24 -1
-55 -4 -70 -6z"/>
<path d="M2193 1169 c-85 -15 -135 -58 -180 -154 -26 -57 -28 -68 -28 -200 0
-125 2 -145 23 -190 30 -66 66 -102 127 -131 67 -32 143 -32 210 0 76 35 81
45 43 94 l-31 40 -36 -19 c-70 -38 -135 -17 -167 52 -26 59 -27 252 -1 319 29
76 95 99 170 61 l37 -19 31 40 c30 38 31 40 13 54 -58 45 -138 65 -211 53z"/>
<path d="M4719 1169 c-84 -13 -149 -70 -187 -164 -21 -50 -31 -180 -21 -261
23 -178 115 -274 266 -274 113 0 203 83 238 220 21 79 15 240 -10 311 -19 54
-74 123 -117 145 -41 21 -114 31 -169 23z m95 -120 c43 -20 61 -86 61 -219 0
-135 -7 -175 -38 -214 -18 -23 -32 -29 -64 -30 -53 -1 -87 29 -103 91 -14 59
-15 238 0 293 21 78 78 109 144 79z"/>
<path d="M3188 1154 c-26 -8 -50 -19 -53 -24 -3 -5 0 -28 6 -51 11 -37 15 -40
38 -34 14 3 60 9 102 12 74 5 76 5 97 -22 16 -21 22 -41 22 -81 l0 -52 -67 -7
c-131 -13 -204 -54 -233 -130 -19 -50 -14 -151 10 -200 52 -106 185 -127 277
-42 31 28 48 38 51 29 12 -38 104 -96 115 -74 2 4 9 26 17 49 12 38 11 45 -3
61 -13 15 -17 52 -20 227 -3 200 -4 212 -28 259 -36 73 -85 96 -198 95 -47 0
-107 -7 -133 -15z m212 -419 c0 -110 -28 -155 -98 -155 -42 0 -65 31 -70 94
-7 86 40 135 131 136 l37 0 0 -75z"/>
<path d="M4338 1154 c-15 -8 -39 -34 -54 -59 -14 -25 -30 -42 -35 -39 -5 3 -9
27 -9 55 l0 49 -65 0 -65 0 0 -335 0 -335 74 0 73 0 0 193 c0 154 4 204 17
244 22 67 55 97 109 98 42 1 42 1 49 46 3 24 9 56 11 72 5 26 4 27 -36 27 -23
-1 -54 -7 -69 -16z"/>
<path d="M5283 1150 c-57 -29 -96 -76 -124 -147 -30 -78 -33 -258 -6 -348 23
-75 100 -157 162 -174 210 -58 354 105 339 384 -7 133 -44 215 -123 270 -38
26 -52 30 -124 33 -68 2 -89 -1 -124 -18z m159 -101 c40 -21 60 -91 61 -213 1
-161 -25 -234 -90 -251 -33 -8 -78 10 -97 40 -38 58 -46 287 -13 367 25 60 86
85 139 57z"/>
<path d="M6024 1160 c-12 -5 -37 -25 -56 -44 -19 -20 -38 -36 -41 -36 -3 0 -8
18 -12 40 l-7 41 -59 -3 -60 -3 -2 -333 -2 -332 73 0 72 0 0 244 c0 236 1 244
22 272 32 42 50 53 80 54 17 0 31 -7 38 -19 6 -12 11 -125 13 -283 l2 -263 73
-3 72 -3 0 243 c0 261 2 272 56 313 28 21 71 19 84 -4 6 -12 10 -121 10 -286
l0 -266 71 3 71 3 -1 285 c-2 314 -6 335 -65 371 -37 23 -106 25 -146 4 -16
-8 -41 -31 -56 -50 -31 -41 -41 -43 -53 -12 -16 43 -68 77 -114 76 -23 0 -52
-4 -63 -9z"/>
</g>
</svg>
